<?xml version="1.0" encoding="utf-8"?>
<!-- Generator: Adobe Illustrator 25.0.1, SVG Export Plug-In . SVG Version: 6.00 Build 0)  -->
<svg version="1.1" id="Layer_1" xmlns="http://www.w3.org/2000/svg" xmlns:xlink="http://www.w3.org/1999/xlink" x="0px" y="0px"
	 viewBox="0 0 1000 400" style="enable-background:new 0 0 1000 400;" xml:space="preserve">
<style type="text/css">
	.st0{fill:#21431E;}
	.st1{fill:#FFFFFF;}
	.st2{fill:#050606;}
</style>
<g>
	<path class="st0" d="M397.57,172.15L255.48,80.21c-4.9-3.17-11.37,0.35-11.37,6.19v71.82c0,3.22-3.57,5.17-6.28,3.41L112,80.21
		c-4.9-3.17-11.37,0.35-11.37,6.19v89.85c0,2.44,1.21,4.73,3.23,6.1l142.09,96.34c4.89,3.32,11.51-0.19,11.51-6.1v-75.71
		c0-3.26,3.65-5.2,6.35-3.37l125.63,85.18c4.89,3.32,11.51-0.19,11.51-6.1v-94.25C400.94,175.84,399.67,173.51,397.57,172.15z
		 M217.12,201.7c-5.04-2.55-8.08-8.46-7.3-13.58c0.79-5.26,5.44-8.69,10.98-7.38c6.39,1.5,11.16,8.46,9.78,15.1
		C229.25,202.26,222.89,204.62,217.12,201.7z M360.6,201.7c-5.04-2.55-8.08-8.46-7.3-13.58c0.79-5.26,5.44-8.69,10.98-7.38
		c6.39,1.5,11.17,8.46,9.78,15.1C372.73,202.26,366.37,204.62,360.6,201.7z"/>
	<g>
		<path class="st2" d="M505.6,106.63c-4.49,0-12.81,5.26-12.92,17.74V257.6h37.22c17.19,0,30.33-12.92,34.93-35.14v38.21H460.39
			c4.49,0,12.81-5.26,12.81-17.63V124.36c0-12.48-8.32-17.74-12.81-17.74H505.6z"/>
		<path class="st2" d="M635.91,145.49c23.54,0,45.66,14.56,54.19,37.88c10.84,29.89-4.6,62.95-34.49,73.79
			c-6.57,2.41-13.25,3.5-19.71,3.5c-23.54,0-45.65-14.56-54.08-37.88c-10.84-29.89,4.49-62.95,34.38-73.79
			C622.78,146.59,629.45,145.49,635.91,145.49z M671.71,190.05c-8.65-23.87-27.48-39.85-45-39.85c-3.17,0-6.35,0.55-9.41,1.64
			c-19.82,7.23-27.48,36.02-17.19,64.27c8.65,23.87,27.48,39.85,45.1,39.85c3.18,0,6.35-0.55,9.42-1.64
			C674.34,247.09,682,218.3,671.71,190.05z"/>
		<path class="st2" d="M743.45,260.99l-37.44-97.88c-4.05-10.84-12.7-17.63-17.19-17.63h45.1c-4.27,0-10.95,4.93-7.66,15.77
			c8.98,23.21,18.72,49.05,27.7,72.48c7.23-19.05,19.49-51.56,26.83-70.62c3.39-8.76-1.54-17.63-6.03-17.63h29.01
			c-4.49,0-15.11,5.8-19.7,17.63c-12.37,32.41-24.64,64.7-37,97.11l-10.84,28.35c-8.1,21.24-25.72,32.41-44.56,32.41
			c-13.68,0-27.81-5.8-39.52-17.85l12.37-12.92c8.43,14.23,22.44,22.44,36.02,22.44c12.81,0,25.29-7.45,32.4-24.2L743.45,260.99z"/>
		<path class="st2" d="M886.57,243.04c0.11,12.37,8.32,17.63,12.81,17.63h-32.3v-21.13c-7.23,12.81-21.79,21.13-36.46,21.13
			c-22.77,0-35.47-16.53-34.93-34.38c0.66-29.78,32.74-42.48,57.04-42.48c4.82,0,9.64,0.66,14.34,1.53v-8.1
			c0-12.15-7.01-28.68-20.91-28.68c-11.28,0-21.24,15.11-28.9,27.37l-12.37-12.92c10.51-10.84,24.96-17.19,40.18-17.52
			c18.72,0,41.49,8.32,41.49,31.2V243.04z M853.18,186.88c-26.6,0-37.88,20.47-37.99,39.3c0,12.59,5.91,30.22,21.02,30.22
			c7.34,0,15.11-4.16,20.25-8.65c4.6-3.94,8.32-9.2,10.62-15.55v-43.68C862.59,187.42,857.88,186.88,853.18,186.88z"/>
	</g>
</g>
</svg>
